HIERARCHY
ROOT Hips
{
	OFFSET -0.001795 -0.223333 0.028219
	CHANNELS 6 Xposition Yposition Zposition Zrotation Yrotation Xrotation 
	JOINT LeftUpLeg
	{
		OFFSET 0.069520 -0.091406 -0.006815
		CHANNELS 3 Zrotation Yrotation Xrotation
		JOINT LeftLeg
		{
			OFFSET 0.034277 -0.375199 -0.004496
			CHANNELS 3 Zrotation Yrotation Xrotation
			JOINT LeftFoot
			{
				OFFSET -0.013596 -0.397961 -0.043693
				CHANNELS 3 Zrotation Yrotation Xrotation
				JOINT LeftToe
				{
					OFFSET 0.026358 -0.055791 0.119288
					CHANNELS 3 Zrotation Yrotation Xrotation
					End Site
					{
						OFFSET 0.000000 0.000000 0.000000
					}
				}
			}
		}
	}
	JOINT RightUpLeg
	{
		OFFSET -0.067670 -0.090522 -0.004320
		CHANNELS 3 Zrotation Yrotation Xrotation
		JOINT RightLeg
		{
			OFFSET -0.038290 -0.382569 -0.008850
			CHANNELS 3 Zrotation Yrotation Xrotation
			JOINT RightFoot
			{
				OFFSET 0.015774 -0.398415 -0.042312
				CHANNELS 3 Zrotation Yrotation Xrotation
				JOINT RightToe
				{
					OFFSET -0.025372 -0.048144 0.123348
					CHANNELS 3 Zrotation Yrotation Xrotation
					End Site
					{
						OFFSET 0.000000 0.000000 0.000000
					}
				}
			}
		}
	}
	JOINT Spine
	{
		OFFSET -0.002533 0.108963 -0.026696
		CHANNELS 3 Zrotation Yrotation Xrotation
		JOINT Spine1
		{
			OFFSET 0.005487 0.135180 0.001092
			CHANNELS 3 Zrotation Yrotation Xrotation
			JOINT Spine2
			{
				OFFSET 0.001457 0.052922 0.025425
				CHANNELS 3 Zrotation Yrotation Xrotation
				JOINT Neck
				{
					OFFSET -0.002778 0.213870 -0.042857
					CHANNELS 3 Zrotation Yrotation Xrotation
					JOINT Head
					{
						OFFSET 0.005152 0.064970 0.051349
						CHANNELS 3 Zrotation Yrotation Xrotation
						End Site
						{
							OFFSET 0.000000 0.000000 0.000000
						}
					}
				}
				JOINT LeftShoulder
				{
					OFFSET 0.078845 0.121749 -0.034090
					CHANNELS 3 Zrotation Yrotation Xrotation
					JOINT LeftArm
					{
						OFFSET 0.090977 0.030469 -0.008868
						CHANNELS 3 Zrotation Yrotation Xrotation
						JOINT LeftForeArm
						{
							OFFSET 0.259612 -0.012772 -0.027456
							CHANNELS 3 Zrotation Yrotation Xrotation
							JOINT LeftHand
							{
								OFFSET 0.249234 0.008986 -0.001171
								CHANNELS 3 Zrotation Yrotation Xrotation
								End Site
								{
									OFFSET 0.000000 0.000000 0.000000
								}
							}
						}
					}
				}
				JOINT RightShoulder
				{
					OFFSET -0.081759 0.118833 -0.038615
					CHANNELS 3 Zrotation Yrotation Xrotation
					JOINT RightArm
					{
						OFFSET -0.096012 0.032551 -0.009143
						CHANNELS 3 Zrotation Yrotation Xrotation
						JOINT RightForeArm
						{
							OFFSET -0.253742 -0.013329 -0.021401
							CHANNELS 3 Zrotation Yrotation Xrotation
							JOINT RightHand
							{
								OFFSET -0.255298 0.007772 -0.005559
								CHANNELS 3 Zrotation Yrotation Xrotation
								End Site
								{
									OFFSET 0.000000 0.000000 0.000000
								}
							}
						}
					}
				}
			}
		}
	}
}
MOTION
Frames: 7
Frame Time: 0.050000
0.000000 0.956152 0.000000 -1.055404 -7.694746 2.725879 4.914606 -0.027478 -0.373335 0.000375 0.336722 -8.912877 -0.274822 4.890273 18.606089 0.000000 0.000000 0.000000 -1.772174 0.149102 -0.911685 -0.001498 -0.241779 -6.799724 1.965825 -3.540806 14.687538 0.000000 0.000000 0.000000 3.756971 -0.098724 0.520202 -3.446417 1.661431 0.186317 -1.513633 4.714740 -0.460625 4.513365 -3.302192 -1.729166 0.000000 0.000000 0.000000 -21.507897 -0.794497 -2.161055 -42.769498 -4.442015 -3.020876 -3.172672 -11.777963 0.722965 0.000000 0.000000 0.000000 20.064393 -3.027897 -3.432566 50.983974 2.363702 -3.505606 2.254805 14.701491 0.717661 0.000000 0.000000 0.000000 
0.000165 0.954585 0.000100 -1.448219 -8.873680 2.975973 5.746635 0.009469 0.038824 -0.803140 0.406770 -9.605632 0.353888 5.595340 18.424467 0.000000 0.000000 0.000000 -1.411793 0.226108 -1.972758 -0.003327 -0.199456 -5.543366 2.340026 -2.727232 13.948492 0.000000 0.000000 0.000000 4.250104 -0.140414 0.906307 -3.413526 1.644988 0.120769 -2.246090 6.177666 -1.902120 6.075595 -4.576760 -1.084105 0.000000 0.000000 0.000000 -21.993057 -0.839669 -2.566069 -43.270125 -4.175398 -2.932421 -2.449086 -12.247764 0.654263 0.000000 0.000000 0.000000 20.523249 -4.079980 -3.837901 51.751824 1.004574 -4.040740 1.902007 15.593479 0.743174 0.000000 0.000000 0.000000 
0.000224 0.954031 -0.000024 -1.205172 -8.583125 2.995647 5.730186 -0.031265 -0.759235 -1.215733 0.380236 -8.423475 0.313857 5.476850 17.958463 0.000000 0.000000 0.000000 -1.448055 0.242273 -2.154098 -0.421539 -0.175118 -5.295615 2.143917 -2.917827 13.674560 0.000000 0.000000 0.000000 4.389595 -0.163813 1.152889 -2.959840 1.378578 -1.230806 -3.147409 6.484071 -1.586763 7.091153 -5.633374 0.187422 0.000000 0.000000 0.000000 -20.963061 -1.357890 -2.291880 -44.877458 -3.294483 -3.370444 -1.333805 -12.297111 0.531204 0.000000 0.000000 0.000000 21.124159 -3.637959 -3.494935 52.257086 0.145071 -4.516747 0.459721 15.128444 0.573276 0.000000 0.000000 0.000000 
0.000177 0.953850 -0.000065 -1.438839 -8.592236 3.375898 6.640672 -0.034715 -1.050736 -2.360683 0.445068 -8.572151 0.302817 5.471434 18.003988 0.000000 0.000000 0.000000 -1.239030 0.291587 -2.784929 -0.407959 -0.167773 -5.066837 2.226425 -2.941808 14.046559 0.000000 0.000000 0.000000 4.390012 -0.155794 0.990596 -3.174061 1.482914 -1.092311 -2.583330 6.069935 -2.386940 7.485772 -5.971391 0.485490 0.000000 0.000000 0.000000 -20.748216 -0.479540 -2.621621 -45.845062 -2.908774 -3.563826 -1.357486 -13.535419 0.589710 0.000000 0.000000 0.000000 20.717284 -3.787421 -3.694865 52.302401 -0.481464 -4.664768 0.813649 15.469347 0.610952 0.000000 0.000000 0.000000 
0.000139 0.954098 -0.000076 -1.310925 -8.821716 3.382886 6.256052 -0.042354 -1.181395 -1.938926 0.417343 -8.319471 0.438254 5.634985 18.029620 0.000000 0.000000 0.000000 -1.265860 0.317379 -3.072091 -0.601580 -0.159902 -5.092341 2.316353 -3.184307 14.846216 0.000000 0.000000 0.000000 4.372719 -0.155226 0.992183 -3.102641 1.444171 -1.224922 -2.639516 6.596444 -2.516260 7.517114 -5.859817 -0.190583 0.000000 0.000000 0.000000 -20.673832 -0.234190 -2.855340 -46.033490 -2.920700 -3.541818 -1.255352 -15.370668 0.640912 0.000000 0.000000 0.000000 20.096949 -4.373208 -3.844152 52.904767 -0.898372 -4.891484 1.106217 16.061113 0.681356 0.000000 0.000000 0.000000 
-0.000004 0.954261 -0.000065 -1.282112 -8.888160 3.595632 6.397689 -0.052838 -1.467882 -2.228604 0.431074 -8.209175 0.468848 5.685656 18.110125 0.000000 0.000000 0.000000 -1.352708 0.363825 -3.575791 -0.645890 -0.155577 -5.027200 2.565327 -3.116250 15.658223 0.000000 0.000000 0.000000 4.280815 -0.162424 1.072544 -3.019262 1.390813 -1.622671 -2.459509 6.770910 -2.507265 7.767079 -5.981183 -0.545415 0.000000 0.000000 0.000000 -20.835025 0.401743 -3.238742 -46.251493 -2.809949 -3.599593 -1.559309 -18.171399 0.794676 0.000000 0.000000 0.000000 19.760616 -4.869521 -4.059023 53.574457 -0.734791 -4.874746 1.601591 16.708237 0.776286 0.000000 0.000000 0.000000 
-0.000222 0.954011 -0.000101 -1.244515 -9.029528 3.608062 6.406324 -0.052628 -1.522045 -2.298417 0.433443 -8.102268 0.556678 5.778797 18.044598 0.000000 0.000000 0.000000 -1.492455 0.377381 -3.700216 -0.678364 -0.154315 -5.035542 2.953620 -2.587059 15.949299 0.000000 0.000000 0.000000 4.474869 -0.177020 1.195631 -3.033121 1.389436 -1.817437 -2.680660 6.877213 -2.571771 7.719957 -5.792569 -1.274262 0.000000 0.000000 0.000000 -20.320286 1.206084 -3.605193 -45.944930 -2.559775 -3.667463 -2.654695 -21.734307 1.141460 0.000000 0.000000 0.000000 19.273891 -4.865299 -3.975967 54.446172 -0.932891 -5.035963 2.628253 18.486325 1.016711 0.000000 0.000000 0.000000 
